<svg xmlns="http://www.w3.org/2000/svg" xmlns:xlink="http://www.w3.org/1999/xlink" id="Layer_1" x="0" y="0" version="1.1" viewBox="60 60 150 150" xml:space="preserve" style="enable-background:new 0 0 270 270"><style type="text/css">.st0{fill:#2d333a}</style><g id="Layer_2"><g><rect width="17.6" height="17" x="128.5" y="127.3" class="st0" transform="matrix(0.9482 -0.3176 0.3176 0.9482 -36.0197 50.6366)"/><g><rect width="17.6" height="17" x="128.5" y="127.3" class="st0" transform="matrix(0.9482 -0.3176 0.3176 0.9482 -36.0197 50.6366)"/><path d="M194.6,118.5c-12.9-43-31.5-53-74.5-40.1s-53,31.5-40.1,74.5s31.5,53,74.5,40.1S207.5,161.5,194.6,118.5z M172.9,146.4l-8.1,2.7l2.8,8.4c1.1,3.4-0.7,7.1-4.1,8.2c-0.7,0.2-1.5,0.4-2.2,0.3c-2.6-0.1-5.1-1.8-6-4.4l-2.8-8.4l-16.7,5.6 l2.8,8.4c1.1,3.4-0.7,7.1-4.1,8.2c-0.7,0.2-1.5,0.4-2.2,0.3c-2.6-0.1-5.1-1.8-6-4.4l-2.8-8.4l-8.1,2.7c-0.7,0.2-1.5,0.4-2.2,0.3 c-2.6-0.1-5.1-1.8-6-4.4c-1.1-3.4,0.7-7.1,4.1-8.2l8.1-2.7l-5.4-16.1l-8.1,2.7c-0.7,0.2-1.5,0.4-2.2,0.3c-2.6-0.1-5.1-1.8-6-4.4 c-1.1-3.4,0.7-7.1,4.1-8.2l8.1-2.7l-2.8-8.4c-1.1-3.4,0.7-7.1,4.1-8.2s7.1,0.7,8.2,4.1l2.8,8.4l16.7-5.6l-2.8-8.4 c-1.1-3.4,0.7-7.1,4.1-8.2c3.4-1.1,7.1,0.7,8.2,4.1l2.8,8.4l8.1-2.7c3.4-1.1,7.1,0.7,8.2,4.1c1.1,3.4-0.7,7.1-4.1,8.2l-8.1,2.7 l5.4,16.1l8.1-2.7c3.4-1.1,7.1,0.7,8.2,4.1C178.1,141.6,176.3,145.3,172.9,146.4z" class="st0"/></g></g></g></svg>