<svg xmlns="http://www.w3.org/2000/svg" xmlns:xlink="http://www.w3.org/1999/xlink" width="64" height="64" x="0" y="0" version="1.1" viewBox="0 0 24 24" style="fill:#ccc"><g fill="none" stroke="none" stroke-dashoffset="0" stroke-linecap="butt" stroke-linejoin="miter" stroke-miterlimit="10" stroke-width="1" font-family="sans-serif" font-size="none" font-weight="none" mix-blend-mode="normal" text-anchor="start"><g><g><path fill="none" d="M0,24l0,-24l24,0l0,24z" font-size="12" font-weight="normal"/><path fill="#f0f2f6" d="M0,24l0,-24l24,0l0,24z" font-size="12" font-weight="normal"/><g id="user" fill="#ccc" font-size="16" font-weight="400"><path d="M17,9c0,-1.38 -0.56,-2.63 -1.464,-3.535c-0.906,-0.905 -2.156,-1.465 -3.536,-1.465c-1.38,0 -2.63,0.56 -3.536,1.465c-0.904,0.905 -1.464,2.155 -1.464,3.535c0,1.38 0.56,2.63 1.464,3.535c0.906,0.905 2.156,1.465 3.536,1.465c1.38,0 2.63,-0.56 3.536,-1.465c0.904,-0.905 1.464,-2.155 1.464,-3.535z M6,19c0,1 2.25,2 6,2c3.518,0 6,-1 6,-2c0,-2 -2.354,-4 -6,-4c-3.75,0 -6,2 -6,4z"/></g></g></g></g></svg>